<?xml version="1.0" encoding="UTF-8" standalone="no"?>
<svg
   xmlns:dc="http://purl.org/dc/elements/1.1/"
   xmlns:cc="http://creativecommons.org/ns#"
   xmlns:rdf="http://www.w3.org/1999/02/22-rdf-syntax-ns#"
   xmlns:svg="http://www.w3.org/2000/svg"
   xmlns="http://www.w3.org/2000/svg"
   xmlns:sodipodi="http://sodipodi.sourceforge.net/DTD/sodipodi-0.dtd"
   xmlns:inkscape="http://www.inkscape.org/namespaces/inkscape"
   width="45pt"
   height="52pt"
   viewBox="0 0 45 52"
   version="1.1"
   id="svg2"
   inkscape:version="0.48.2 r9819"
   sodipodi:docname="redCard.svg">
  <metadata
     id="metadata12">
    <rdf:RDF>
      <cc:Work
         rdf:about="">
        <dc:format>image/svg+xml</dc:format>
        <dc:type
           rdf:resource="http://purl.org/dc/dcmitype/StillImage" />
        <dc:title></dc:title>
      </cc:Work>
    </rdf:RDF>
  </metadata>
  <defs
     id="defs10" />
  <sodipodi:namedview
     pagecolor="#ffffff"
     bordercolor="#666666"
     borderopacity="1"
     objecttolerance="10"
     gridtolerance="10"
     guidetolerance="10"
     inkscape:pageopacity="0"
     inkscape:pageshadow="2"
     inkscape:window-width="1366"
     inkscape:window-height="691"
     id="namedview8"
     showgrid="false"
     showguides="true"
     inkscape:guide-bbox="true"
     inkscape:zoom="3.6307692"
     inkscape:cx="-20.041968"
     inkscape:cy="29.243294"
     inkscape:window-x="-9"
     inkscape:window-y="-9"
     inkscape:window-maximized="1"
     inkscape:current-layer="#373737ff">
    <sodipodi:guide
       orientation="0,1"
       position="-32.134408,73.422253"
       id="guide3025" />
  </sodipodi:namedview>
  <g
     id="#373737ff">
    <a
       transform="translate(-26.347653,-0.48418286)"
       id="a3881-4" />
    <path
       style="fill:#f9f9f9;stroke:#000000;stroke-width:0;stroke-linecap:butt;stroke-linejoin:miter;stroke-miterlimit:4;stroke-opacity:1;stroke-dasharray:none"
       d="M 5.7751289,38.222423 C 11.230528,15.039991 25.122158,9.8308486 32.189377,7.8201268 32.465208,7.741649 36.232784,21.534072 33.40872,34.647257 32.385983,39.396212 28.746746,43.329422 26.236523,47.507945 25.414026,48.877074 17.677816,52.060916 15.570048,50.641583 13.462282,49.22225 5.7751289,38.222423 5.7751289,38.222423 z"
       id="path3936"
       inkscape:connector-curvature="0"
       sodipodi:nodetypes="cssssc" />
    <a
       id="a3881-7"
       transform="matrix(1.1254143,0,0,1.0735977,-3.4191534,-0.85592981)">
      <path
         sodipodi:nodetypes="cccccccccccccccccccccccc"
         style="fill:#000000"
         inkscape:connector-curvature="0"
         id="path6-71"
         d="m 11.072229,5.557149 c 7.25,-1.58 14.48,-3.23 21.74,-4.74000002 2.17,9.22000002 4.19,18.47000002 6.16,27.73000002 -3.45,0.83 -6.93,1.55 -10.41,2.29 0.68,1.7 1.46,3.38 2.76,4.71 0.21,-0.87 2.130105,-1.942349 1.22841,-5.666756 1.02,-0.2 1.440153,-0.545803 2.460153,-0.735803 0.55,3.22 -0.888563,8.472559 -4.148563,9.202559 0.14,4.47 -2.49,8.11 -5.46,11.16 l -12.22,0 c -0.13,-2.31 0.22,-4.81 -0.92,-6.93 -1.77,-3.41 -5.0400003,-6.16 -5.5900003,-10.12 0.23,-4.72 4.9025423,-11.524407 7.0625423,-15.554407 0.35,1.5 0.69,2.080718 1.02,3.590718 -1.42,3.21 -7.2973614,11.311099 -3.822542,14.323689 2.51,3.53 5.23,7.07 5.7,11.55 2.44,-0.04 4.88,-0.02 7.32,-0.03 1.5,-2.04 3.72,-4.04 3.56,-6.81 -0.19,-2.41 -0.98,-4.73 -1.4,-7.1 -0.47,-3.14 -0.183705,-6.106295 -0.603705,-9.246295 -0.28,-1.92 -2.718885,-2.185803 -3.138885,-0.275803 -1.1,3.25 -2.00741,6.602098 -2.70741,9.952098 -0.83,0.14 -1.65,0.29 -2.47,0.43 -2.08,-9.23 -4.2,-18.46 -6.12,-27.73 z" />
    </a>
    <path
       d="m 11.540978,6.418208 c 6.750933,-1.4114053 13.483244,-2.8853412 20.243489,-4.2342158 2.020623,8.2361748 4.060886,17.3030438 5.895277,25.5749528 -12.548045,3.478203 -1.235831,0.224041 -10.190258,2.662084 -0.437645,-2.804943 -0.223979,-5.830755 -0.615062,-8.635701 -0.26073,-1.715126 -5.601089,-2.252404 -6.364136,-0.782756 -1.02428,2.903206 -1.104733,3.312163 -1.942525,6.289916 -0.247749,0.578745 -0.301035,0.711287 -1.328066,3.896783 -1.93682,-8.245119 -3.910886,-16.490226 -5.698719,-24.771063 z"
       id="path6-7-2"
       inkscape:connector-curvature="0"
       style="fill:#ffcc00;fill-opacity:1"
       sodipodi:nodetypes="ccccccccc" />
  </g>
  <g
     id="#ffffffff" />
</svg>
