<?xml version="1.0" encoding="UTF-8" ?>
<!DOCTYPE svg PUBLIC "-//W3C//DTD SVG 1.1//EN" "http://www.w3.org/Graphics/SVG/1.1/DTD/svg11.dtd">
<svg width="75pt" height="87pt" viewBox="0 0 75 87" version="1.1" xmlns="http://www.w3.org/2000/svg">
<g id="#e7e7e9ff">
</g>
<g id="#231f20ff">
<path fill="#231f20" opacity="1.00" d=" M 35.83 4.68 C 36.24 3.53 36.85 2.47 37.95 1.84 C 45.67 8.14 53.34 14.52 60.82 21.11 C 66.75 26.33 70.90 33.88 70.55 41.95 C 70.87 50.51 66.49 58.74 59.70 63.80 C 50.88 70.36 41.80 76.56 32.83 82.91 C 31.18 85.03 28.09 81.79 30.24 80.37 C 35.73 76.10 41.66 72.41 47.17 68.17 C 49.26 65.87 50.17 62.77 51.47 60.00 C 44.99 62.84 38.55 65.77 31.99 68.41 C 30.32 69.71 28.32 66.07 30.32 65.39 C 37.73 61.64 45.67 58.94 53.06 55.14 C 55.75 46.72 55.62 37.49 53.25 29.00 C 47.45 26.00 41.59 23.10 35.89 19.89 C 36.13 18.82 36.53 16.57 38.16 17.23 C 42.85 19.16 47.20 21.88 51.76 24.10 C 50.25 20.74 49.16 17.08 46.91 14.12 C 43.32 10.85 39.47 7.88 35.83 4.68 M 54.15 20.13 C 54.93 22.25 55.69 24.37 56.43 26.50 C 59.14 27.91 61.76 29.50 64.39 31.06 C 61.67 26.82 58.00 23.32 54.15 20.13 M 56.09 58.12 C 55.43 59.92 54.75 61.71 54.10 63.52 C 57.69 60.77 61.28 57.90 63.75 54.04 C 61.22 55.45 58.70 56.86 56.09 58.12 Z" />
<path fill="#231f20" opacity="1.00" d=" M 8.57 24.32 C 6.85 23.58 7.75 21.34 9.07 20.71 C 13.22 22.41 16.97 24.97 20.82 27.26 C 22.60 28.12 21.04 29.94 20.28 30.88 C 16.25 28.93 12.41 26.61 8.57 24.32 Z" />
<path fill="#231f20" opacity="1.00" d=" M 23.62 44.90 C 22.15 36.00 27.58 26.50 36.03 23.32 C 40.30 24.84 44.08 27.57 48.28 29.33 C 46.88 29.93 45.47 30.51 44.05 31.08 C 41.66 30.20 39.26 29.36 36.84 28.55 C 37.45 27.55 38.06 26.54 38.66 25.53 C 34.95 26.46 31.96 29.02 29.48 31.82 C 30.36 31.65 32.14 31.31 33.02 31.14 C 33.10 33.67 33.73 36.25 33.34 38.78 C 32.10 40.92 30.54 42.84 29.14 44.87 C 28.40 44.10 26.93 42.55 26.19 41.78 C 26.48 45.70 27.59 49.57 30.06 52.69 C 30.19 51.70 30.46 49.74 30.59 48.75 C 32.98 48.79 35.31 50.04 37.68 50.49 C 39.11 52.51 40.53 54.54 42.04 56.50 C 39.74 57.87 37.45 59.25 35.04 60.40 C 29.08 57.39 24.45 51.62 23.62 44.90 Z" />
<path fill="#231f20" opacity="1.00" d=" M 36.76 39.89 C 39.00 37.89 41.51 36.23 43.95 34.48 C 46.22 36.21 48.49 37.93 50.89 39.49 C 50.20 42.38 49.20 45.18 48.23 47.99 C 45.40 47.85 42.57 47.86 39.75 48.09 C 38.48 45.46 37.87 42.59 36.76 39.89 Z" />
<path fill="#231f20" opacity="1.00" d=" M 3.23 41.35 C 7.28 40.15 11.82 41.11 16.06 40.84 C 18.30 40.40 19.09 44.14 16.74 44.45 C 12.61 44.64 8.46 44.58 4.33 44.49 C 2.79 44.65 1.71 42.11 3.23 41.35 Z" />
<path fill="#231f20" opacity="1.00" d=" M 47.94 54.66 C 48.95 52.89 50.08 51.19 51.35 49.59 C 51.90 52.08 50.51 54.29 47.94 54.66 Z" />
<path fill="#231f20" opacity="1.00" d=" M 8.44 61.64 C 11.99 58.70 16.40 57.03 20.18 54.41 C 21.49 55.18 23.06 56.02 21.80 57.68 C 18.06 60.33 13.86 62.27 9.93 64.64 C 9.14 64.00 7.35 62.82 8.44 61.64 Z" />
</g>
</svg>
