<?xml version="1.0" encoding="UTF-8" ?>
<!DOCTYPE svg PUBLIC "-//W3C//DTD SVG 1.1//EN" "http://www.w3.org/Graphics/SVG/1.1/DTD/svg11.dtd">
<svg width="45pt" height="52pt" viewBox="0 0 45 52" version="1.1" xmlns="http://www.w3.org/2000/svg">
<g id="#ffffffff">
</g>
<g id="#373737ff">
<path fill="#373737" opacity="1.00" d=" M 9.67 8.05 C 16.92 6.47 24.15 4.82 31.41 3.31 C 33.58 12.53 35.60 21.78 37.57 31.04 C 34.12 31.87 30.64 32.59 27.16 33.33 C 27.84 35.03 28.62 36.71 29.92 38.04 C 30.13 37.17 30.54 35.45 30.74 34.59 C 31.76 34.39 32.79 34.20 33.81 34.01 C 34.36 37.23 32.72 40.11 29.46 40.84 C 29.60 45.31 26.97 48.95 24.00 52.00 L 11.78 52.00 C 11.65 49.69 12.00 47.19 10.86 45.07 C 9.09 41.66 5.82 38.91 5.27 34.95 C 5.50 30.23 8.52 26.29 10.68 22.26 C 11.03 23.76 11.37 25.27 11.70 26.78 C 10.28 29.99 6.99 33.83 9.53 37.31 C 12.04 40.84 14.76 44.38 15.23 48.86 C 17.67 48.82 20.11 48.84 22.55 48.83 C 24.05 46.79 26.27 44.79 26.11 42.02 C 25.92 39.61 25.13 37.29 24.71 34.92 C 24.24 31.78 24.76 28.58 24.34 25.44 C 24.06 23.52 20.92 23.41 20.50 25.32 C 19.40 28.57 18.96 32.00 18.26 35.35 C 17.43 35.49 16.61 35.64 15.79 35.78 C 13.71 26.55 11.59 17.32 9.67 8.05 Z" />
</g>
</svg>
