<?xml version="1.0" encoding="UTF-8" standalone="no"?>
<!-- Generator: IcoMoon.io -->

<svg
   xmlns:dc="http://purl.org/dc/elements/1.1/"
   xmlns:cc="http://creativecommons.org/ns#"
   xmlns:rdf="http://www.w3.org/1999/02/22-rdf-syntax-ns#"
   xmlns:svg="http://www.w3.org/2000/svg"
   xmlns="http://www.w3.org/2000/svg"
   xmlns:sodipodi="http://sodipodi.sourceforge.net/DTD/sodipodi-0.dtd"
   xmlns:inkscape="http://www.inkscape.org/namespaces/inkscape"
   width="512"
   height="512"
   viewBox="0 0 512 512"
   data-tags="monitor, screen, desktop, pc"
   style="margin-left: 4px; margin-top: 4px;"
   id="svg2"
   version="1.1"
   inkscape:version="0.48.2 r9819"
   sodipodi:docname="ur.svg">
  <metadata
     id="metadata74">
    <rdf:RDF>
      <cc:Work
         rdf:about="">
        <dc:format>image/svg+xml</dc:format>
        <dc:type
           rdf:resource="http://purl.org/dc/dcmitype/StillImage" />
        <dc:title></dc:title>
      </cc:Work>
    </rdf:RDF>
  </metadata>
  <defs
     id="defs72" />
  <sodipodi:namedview
     pagecolor="#ffffff"
     bordercolor="#666666"
     borderopacity="1"
     objecttolerance="10"
     gridtolerance="10"
     guidetolerance="10"
     inkscape:pageopacity="0"
     inkscape:pageshadow="2"
     inkscape:window-width="640"
     inkscape:window-height="480"
     id="namedview70"
     showgrid="false"
     inkscape:zoom="0.4609375"
     inkscape:cx="328.89492"
     inkscape:cy="278.79033"
     inkscape:window-x="0"
     inkscape:window-y="0"
     inkscape:window-maximized="0"
     inkscape:current-layer="svg2" />
  <path
     d="m 64,64.27234 384,0 4.33898,383.45532 -383.999997,0 z M 64,0 C 32,0 -0.36361289,32.138245 0,64.27234 L 4.3389831,447.72766 C 4.7025959,479.86175 36.338983,512 68.338983,512 c 377.282037,-1.12952 95.725167,0 383.999997,0 32,0 64.36362,-32.13825 64,-64.27234 L 512,64.27234 C 511.63639,32.138245 480,0 448,0 z"
     id="path68"
     inkscape:connector-curvature="0"
     sodipodi:nodetypes="cccccsssccssss" />
  <path
     id="path3117"
     d="m 418.98305,301.18644 -96,0 c -8.848,0 -16,7.152 -16,16 l 0,96 c 0,8.848 7.152,16 16,16 l 96,0 c 8.848,0 16,-7.152 16,-16 l 0,-96 c 0,-8.848 -7.152,-16 -16,-16 z m -16,80 c 0,8.848 -7.152,16 -16,16 l -32,0 c -8.848,0 -16,-7.152 -16,-16 l 0,-32 c 0,-8.848 7.152,-16 16,-16 l 32,0 c 8.848,0 16,7.152 16,16 z"
     inkscape:connector-curvature="0"
     sodipodi:nodetypes="ssssssssssssssssss" />
</svg>
