<?xml version="1.0" encoding="UTF-8" ?>
<!DOCTYPE svg PUBLIC "-//W3C//DTD SVG 1.1//EN" "http://www.w3.org/Graphics/SVG/1.1/DTD/svg11.dtd">
<svg width="155pt" height="142pt" viewBox="0 0 155 142" version="1.1" xmlns="http://www.w3.org/2000/svg">
<g id="#ffffffff">
</g>
<g id="#010101ff">
<path fill="#010101" opacity="1.00" d=" M 32.85 32.88 C 43.68 20.64 59.66 13.10 76.02 12.65 C 88.92 12.17 101.91 15.98 112.54 23.29 C 113.94 24.41 115.98 25.03 116.77 26.74 C 116.26 27.01 115.26 27.56 114.75 27.84 L 115.38 28.35 C 110.25 32.34 106.44 37.78 101.07 41.47 C 99.26 36.73 95.96 32.79 92.98 28.74 C 95.65 27.75 98.32 26.76 100.98 25.75 C 90.86 20.68 79.07 19.33 67.98 21.37 C 71.18 23.31 74.49 25.04 77.83 26.73 C 71.30 28.60 66.86 34.07 63.30 39.53 C 56.48 39.04 49.77 40.81 43.29 42.72 C 43.19 39.79 43.15 36.86 43.06 33.94 C 32.13 43.31 25.78 57.47 25.23 71.80 C 28.27 68.70 31.07 65.39 34.09 62.28 C 33.32 69.17 37.92 74.93 42.02 79.92 C 39.77 86.39 39.59 93.30 39.49 100.07 C 36.70 99.26 33.92 98.40 31.12 97.60 C 32.68 100.23 34.35 102.79 36.05 105.33 C 35.73 106.15 35.46 106.99 35.22 107.85 C 33.58 108.78 32.00 109.81 30.51 110.98 C 22.66 101.04 17.97 88.62 17.49 75.95 C 16.74 60.32 22.35 44.49 32.85 32.88 Z" />
<path fill="#010101" opacity="1.00" d=" M 101.72 42.50 C 106.31 36.77 111.74 31.73 117.32 26.97 C 130.98 38.44 139.17 56.19 138.73 74.05 C 138.83 83.61 136.07 92.94 132.05 101.53 C 125.97 97.07 120.92 91.32 115.95 85.69 C 119.27 82.23 122.43 78.62 125.31 74.79 C 126.96 77.04 128.55 79.35 130.34 81.49 C 132.35 68.16 129.20 54.24 121.51 43.15 C 121.15 47.16 120.72 51.17 120.44 55.18 C 116.41 49.78 109.73 47.60 103.38 46.36 C 102.84 45.07 102.30 43.77 101.72 42.50 Z" />
<path fill="#010101" opacity="1.00" d=" M 59.53 75.93 C 61.18 68.03 65.28 60.92 69.76 54.30 C 77.21 54.37 84.74 55.03 91.89 57.20 C 94.22 57.72 94.64 60.89 93.93 62.83 C 92.45 62.77 91.01 61.86 90.44 60.46 C 89.84 59.77 89.23 59.08 88.63 58.39 C 88.64 58.76 88.65 59.49 88.66 59.86 C 90.81 62.09 93.20 64.09 95.25 66.42 C 96.14 71.44 96.55 76.57 96.61 81.67 C 90.27 86.03 83.25 89.23 76.16 92.13 C 71.15 89.02 67.01 84.80 63.01 80.52 C 68.70 72.67 76.66 66.76 82.97 59.41 C 76.47 65.91 69.76 72.22 63.58 79.04 C 63.11 79.39 62.64 79.74 62.16 80.09 C 61.42 78.62 60.49 77.26 59.53 75.93 Z" />
<path fill="#010101" opacity="1.00" d=" M 114.97 86.38 C 119.30 89.17 122.39 93.37 126.17 96.81 C 127.52 98.30 129.45 99.45 129.99 101.51 C 130.43 101.57 131.31 101.70 131.75 101.76 C 125.25 113.87 114.64 123.75 101.96 129.09 C 84.59 136.60 63.67 135.33 47.39 125.65 C 41.22 122.10 35.91 117.27 31.19 111.99 C 33.03 109.99 34.99 108.12 36.95 106.25 C 42.53 113.56 50.33 118.90 58.71 122.52 C 56.59 118.90 54.66 115.18 52.49 111.59 C 58.87 114.25 65.85 111.97 71.86 109.40 C 77.20 113.70 83.77 116.01 90.20 118.11 C 88.48 120.69 86.69 123.21 84.91 125.75 C 98.44 123.90 111.07 116.73 119.55 106.03 C 115.35 106.66 111.16 107.39 107.02 108.37 C 111.26 103.00 111.61 95.86 111.16 89.31 C 112.45 88.37 113.72 87.39 114.97 86.38 Z" />
</g>
</svg>
