<?xml version="1.0" encoding="UTF-8" ?>
<!DOCTYPE svg PUBLIC "-//W3C//DTD SVG 1.1//EN" "http://www.w3.org/Graphics/SVG/1.1/DTD/svg11.dtd">
<svg width="50pt" height="44pt" viewBox="0 0 50 44" version="1.1" xmlns="http://www.w3.org/2000/svg">
<g id="#fcfcfcff">
</g>
<g id="#373737ff">
<path fill="#373737" opacity="1.00" d=" M 6.70 7.65 C 9.39 4.83 13.54 5.49 17.04 5.44 C 21.98 5.54 26.93 5.31 31.86 5.54 C 36.13 5.82 39.30 9.39 40.83 13.13 C 43.54 19.78 46.30 26.43 48.81 33.16 C 47.42 34.62 45.95 36.01 44.38 37.27 C 37.13 37.16 29.87 37.19 22.62 37.26 C 21.82 35.77 21.06 34.27 20.36 32.73 C 16.29 32.60 11.62 33.62 8.21 30.76 C 1.55 25.32 0.50 13.82 6.70 7.65 M 17.86 8.66 C 21.77 15.70 24.25 23.43 27.33 30.85 C 33.08 31.13 38.83 30.91 44.58 31.00 C 42.31 25.39 40.12 19.75 37.77 14.18 C 36.63 11.76 34.82 9.17 31.96 8.80 C 27.26 8.52 22.56 8.79 17.86 8.66 Z" />
<path fill="#373737" opacity="1.00" d=" M 26.20 20.26 C 29.93 20.31 33.66 20.28 37.39 20.29 C 38.02 21.96 38.65 23.62 39.29 25.29 C 35.62 25.31 31.96 25.30 28.30 25.29 C 27.60 23.61 26.90 21.93 26.20 20.26 Z" />
</g>
</svg>
