<?xml version="1.0" encoding="UTF-8" ?>
<!DOCTYPE svg PUBLIC "-//W3C//DTD SVG 1.1//EN" "http://www.w3.org/Graphics/SVG/1.1/DTD/svg11.dtd">
<svg width="50pt" height="44pt" viewBox="0 0 50 44" version="1.1" xmlns="http://www.w3.org/2000/svg">
<g id="#fcfcfcff">
<path fill="#fcfcfc" opacity="1.00" d=" M 0.00 0.00 L 50.00 0.00 L 50.00 44.00 L 0.00 44.00 L 0.00 0.00 M 4.18 11.11 C 1.09 17.54 2.60 26.19 8.22 30.77 C 11.63 33.62 16.30 32.60 20.37 32.73 C 21.06 34.27 21.81 35.79 22.64 37.26 C 29.92 37.17 37.21 37.19 44.49 37.25 C 45.98 35.95 47.41 34.61 48.80 33.21 C 46.34 26.45 43.54 19.83 40.85 13.16 C 39.31 9.39 36.09 5.78 31.78 5.53 C 25.17 5.37 18.54 5.46 11.93 5.47 C 8.45 5.46 5.57 8.10 4.18 11.11 Z" />
<path fill="#fcfcfc" opacity="1.00" d=" M 17.86 8.66 C 22.54 8.79 27.24 8.53 31.92 8.79 C 34.81 9.15 36.63 11.76 37.78 14.18 C 40.12 19.76 42.31 25.39 44.58 31.00 C 38.87 30.96 33.16 31.02 27.46 30.95 C 24.19 23.56 21.84 15.72 17.86 8.66 M 26.20 20.25 C 26.90 21.93 27.60 23.61 28.31 25.29 C 31.97 25.29 35.63 25.31 39.29 25.29 C 38.65 23.62 38.01 21.94 37.37 20.27 C 33.65 20.29 29.92 20.31 26.20 20.25 Z" />
</g>
<g id="#373737ff">
<path fill="#373737" opacity="1.00" d=" M 4.18 11.11 C 5.57 8.10 8.45 5.46 11.93 5.47 C 18.54 5.46 25.17 5.37 31.78 5.53 C 36.09 5.78 39.31 9.39 40.85 13.16 C 43.54 19.83 46.34 26.45 48.80 33.21 C 47.41 34.61 45.98 35.95 44.49 37.25 C 37.21 37.19 29.92 37.17 22.64 37.26 C 21.81 35.79 21.06 34.27 20.37 32.73 C 16.30 32.60 11.63 33.62 8.22 30.77 C 2.60 26.19 1.09 17.54 4.18 11.11 M 17.86 8.66 C 21.84 15.72 24.19 23.56 27.46 30.95 C 33.16 31.02 38.87 30.96 44.58 31.00 C 42.31 25.39 40.12 19.76 37.78 14.18 C 36.63 11.76 34.81 9.15 31.92 8.79 C 27.24 8.53 22.54 8.79 17.86 8.66 Z" />
<path fill="#373737" opacity="1.00" d=" M 26.20 20.25 C 29.92 20.31 33.65 20.29 37.37 20.27 C 38.01 21.94 38.65 23.62 39.29 25.29 C 35.63 25.31 31.97 25.29 28.31 25.29 C 27.60 23.61 26.90 21.93 26.20 20.25 Z" />
</g>
</svg>
