<?xml version="1.0" encoding="UTF-8" ?>
<!DOCTYPE svg PUBLIC "-//W3C//DTD SVG 1.1//EN" "http://www.w3.org/Graphics/SVG/1.1/DTD/svg11.dtd">
<svg width="512pt" height="512pt" viewBox="0 0 512 512" version="1.1" xmlns="http://www.w3.org/2000/svg">
<g id="#0707061b">
<path fill="#070706" opacity="0.11" d=" M 33.24 16.23 C 37.52 12.02 41.39 6.99 47.27 4.92 C 45.71 9.99 41.32 13.17 37.76 16.76 C 30.92 23.59 24.10 30.44 17.26 37.26 C 13.45 40.93 10.22 45.63 4.92 47.26 C 6.15 44.26 7.84 41.45 10.20 39.20 C 17.92 31.58 25.58 23.91 33.24 16.23 Z" />
<path fill="#070706" opacity="0.11" d=" M 52.74 16.74 C 57.22 12.40 61.16 7.07 67.26 4.92 C 65.72 9.99 61.32 13.16 57.76 16.76 C 44.25 30.25 30.77 43.77 17.26 57.26 C 13.45 60.94 10.22 65.63 4.92 67.27 C 6.15 64.27 7.84 61.45 10.20 59.20 C 24.44 45.11 38.56 30.89 52.74 16.74 Z" />
<path fill="#070706" opacity="0.11" d=" M 72.74 16.74 C 77.21 12.40 81.16 7.07 87.27 4.93 C 86.38 7.02 85.46 9.17 83.83 10.81 C 61.53 32.85 39.46 55.13 17.26 77.26 C 13.45 80.93 10.22 85.63 4.93 87.26 C 6.08 84.50 7.56 81.83 9.71 79.71 C 30.76 58.77 51.72 37.73 72.74 16.74 Z" />
<path fill="#070706" opacity="0.11" d=" M 92.73 16.74 C 97.21 12.39 101.17 7.08 107.26 4.93 C 105.71 9.99 101.32 13.17 97.76 16.77 C 70.92 43.59 44.10 70.43 17.26 97.26 C 13.45 100.93 10.23 105.64 4.92 107.26 C 6.08 104.50 7.56 101.83 9.71 99.71 C 37.44 72.11 65.06 44.39 92.73 16.74 Z" />
<path fill="#070706" opacity="0.11" d=" M 112.74 16.74 C 117.22 12.40 121.16 7.07 127.27 4.92 C 126.45 6.79 125.69 8.74 124.31 10.27 C 86.25 48.23 48.24 86.25 10.28 124.30 C 8.74 125.69 6.79 126.45 4.92 127.27 C 6.08 124.50 7.56 121.83 9.71 119.71 C 44.10 85.44 78.39 51.06 112.74 16.74 Z" />
<path fill="#070706" opacity="0.11" d=" M 132.74 16.74 C 137.22 12.40 141.16 7.07 147.27 4.93 C 146.45 6.79 145.69 8.74 144.30 10.27 C 99.59 54.90 54.90 99.59 10.27 144.30 C 8.74 145.69 6.79 146.45 4.92 147.27 C 6.09 144.50 7.56 141.83 9.71 139.71 C 50.78 98.78 91.72 57.72 132.74 16.74 Z" />
<path fill="#070706" opacity="0.11" d=" M 160.23 9.23 C 162.24 7.29 164.74 6.02 167.27 4.92 C 166.45 6.79 165.68 8.74 164.30 10.27 C 115.24 59.21 66.29 108.28 17.26 157.26 C 13.45 160.93 10.23 165.63 4.93 167.27 C 6.02 164.73 7.29 162.23 9.23 160.23 C 59.58 109.91 109.91 59.57 160.23 9.23 Z" />
<path fill="#070706" opacity="0.11" d=" M 239.71 9.71 C 241.83 7.56 244.50 6.08 247.26 4.92 C 245.35 10.90 239.77 14.31 235.76 18.76 C 231.07 23.95 224.83 28.00 221.99 34.63 C 219.74 34.98 217.49 35.33 215.25 35.72 C 217.92 30.46 222.75 26.91 226.75 22.75 C 231.10 18.43 235.35 14.01 239.71 9.71 Z" />
<path fill="#070706" opacity="0.11" d=" M 259.71 9.71 C 261.83 7.56 264.50 6.09 267.27 4.93 C 265.71 9.99 261.31 13.16 257.77 16.77 C 252.90 21.82 247.27 26.27 243.61 32.37 C 241.78 32.46 239.96 32.57 238.14 32.70 C 239.80 29.93 241.78 27.35 244.17 25.16 C 249.51 20.18 254.50 14.83 259.71 9.71 Z" />
<path fill="#070706" opacity="0.11" d=" M 273.24 16.24 C 277.51 12.02 281.40 6.99 287.27 4.93 C 285.63 10.23 280.93 13.44 277.27 17.27 C 272.56 22.07 267.30 26.43 263.66 32.17 C 261.74 32.11 259.83 32.07 257.92 32.04 C 262.61 26.38 268.13 21.51 273.24 16.24 Z" />
<path fill="#070706" opacity="0.11" d=" M 312.23 17.24 C 316.91 12.78 320.94 7.18 327.26 4.93 C 325.45 10.68 320.16 14.03 316.25 18.26 C 310.64 24.21 304.16 29.39 299.50 36.18 C 297.93 35.88 296.35 35.59 294.78 35.31 C 300.04 28.77 306.45 23.30 312.23 17.24 Z" />
<path fill="#070706" opacity="0.11" d=" M 419.19 10.20 C 421.44 7.84 424.26 6.14 427.26 4.93 C 425.72 10.00 421.32 13.16 417.76 16.76 C 404.41 30.07 391.14 43.46 377.73 56.73 C 375.48 59.00 373.43 61.46 371.47 63.99 C 370.01 63.12 368.54 62.27 367.07 61.42 C 371.16 58.46 374.77 54.90 378.25 51.25 C 391.87 37.54 405.62 23.96 419.19 10.20 Z" />
<path fill="#070706" opacity="0.11" d=" M 432.24 17.24 C 436.91 12.77 440.94 7.17 447.27 4.93 C 445.62 10.22 440.94 13.45 437.26 17.25 C 424.27 30.27 411.26 43.26 398.27 56.27 C 393.25 61.36 387.83 66.11 383.56 71.89 C 382.35 71.04 381.13 70.21 379.92 69.38 C 397.52 52.17 414.78 34.60 432.24 17.24 Z" />
<path fill="#070706" opacity="0.11" d=" M 453.23 16.24 C 457.51 12.02 461.40 6.99 467.27 4.92 C 465.53 10.44 460.55 13.74 456.76 17.76 C 436.09 38.57 415.15 59.11 394.65 80.09 C 393.49 79.19 392.32 78.29 391.15 77.40 C 395.38 74.27 399.10 70.53 402.74 66.74 C 419.56 49.89 436.41 33.08 453.23 16.24 Z" />
<path fill="#070706" opacity="0.11" d=" M 473.23 16.24 C 477.51 12.02 481.39 6.99 487.27 4.93 C 485.63 10.22 480.94 13.45 477.26 17.26 C 457.76 36.76 438.26 56.26 418.76 75.76 C 414.26 80.16 409.86 84.68 405.60 89.32 C 404.47 88.32 403.35 87.33 402.22 86.34 C 406.62 83.09 410.45 79.16 414.24 75.24 C 433.90 55.56 453.58 35.91 473.23 16.24 Z" />
<path fill="#070706" opacity="0.11" d=" M 180.23 9.21 C 182.11 7.39 184.63 6.53 187.05 5.71 C 184.63 10.51 180.58 14.10 176.76 17.76 C 156.59 37.92 136.44 58.10 116.25 78.25 C 114.16 80.32 112.77 82.94 111.22 85.41 C 101.03 94.53 91.34 104.22 82.67 114.82 C 80.69 115.10 78.62 115.59 77.24 117.17 C 57.20 137.48 36.88 157.53 16.78 177.78 C 13.48 181.31 10.05 184.83 5.70 187.06 C 7.07 180.80 12.58 177.09 16.74 172.74 C 71.23 118.22 125.77 63.75 180.23 9.21 Z" />
<path fill="#070706" opacity="0.11" d=" M 199.70 9.69 C 201.68 7.62 204.39 6.56 207.06 5.71 C 204.19 11.36 199.10 15.30 194.76 19.75 C 188.77 25.77 182.76 31.76 176.77 37.78 C 172.58 42.06 167.57 45.82 165.05 51.44 C 161.44 53.09 157.85 54.78 154.29 56.53 C 155.59 54.47 156.97 52.44 158.67 50.68 C 172.45 37.13 186.08 23.41 199.70 9.69 Z" />
<path fill="#070706" opacity="0.11" d=" M 218.17 11.17 C 220.52 8.48 223.61 6.62 227.06 5.70 C 223.58 12.40 217.26 16.81 212.26 22.26 C 206.77 28.20 200.04 33.13 195.97 40.25 C 192.94 41.13 189.92 42.05 186.91 43.00 C 196.88 31.96 207.94 21.96 218.17 11.17 Z" />
<path fill="#070706" opacity="0.11" d=" M 293.23 16.24 C 297.38 12.19 301.04 7.00 307.06 5.71 C 305.40 8.71 303.34 11.48 300.83 13.83 C 294.84 19.72 288.71 25.48 283.08 31.72 C 283.70 32.44 284.32 33.16 284.95 33.88 C 282.27 33.57 279.59 33.23 276.90 32.98 C 281.97 27.04 287.82 21.85 293.23 16.24 Z" />
<path fill="#070706" opacity="0.11" d=" M 331.24 18.24 C 336.22 13.74 340.10 7.30 347.06 5.71 C 343.83 11.99 337.99 16.20 333.26 21.25 C 327.35 27.49 320.65 33.01 315.54 39.97 C 313.69 39.46 311.83 38.98 309.96 38.52 C 317.85 32.65 324.10 24.95 331.24 18.24 Z" />
<path fill="#070706" opacity="0.11" d=" M 358.17 11.17 C 360.52 8.49 363.61 6.62 367.06 5.71 C 365.50 8.50 363.64 11.12 361.33 13.33 C 353.50 20.84 346.00 28.67 338.22 36.22 C 335.51 38.85 333.02 41.70 330.77 44.74 C 329.38 44.25 327.99 43.77 326.60 43.30 C 336.68 32.16 347.84 22.07 358.17 11.17 Z" />
<path fill="#070706" opacity="0.11" d=" M 379.70 9.69 C 381.68 7.62 384.38 6.56 387.06 5.71 C 385.50 8.50 383.64 11.12 381.33 13.33 C 371.14 23.14 361.39 33.39 351.18 43.19 C 348.92 45.33 347.16 47.92 345.69 50.64 C 344.06 49.92 342.42 49.22 340.78 48.54 C 353.89 35.73 366.78 22.69 379.70 9.69 Z" />
<path fill="#070706" opacity="0.11" d=" M 399.18 10.17 C 401.28 7.88 404.14 6.59 407.06 5.71 C 405.60 8.27 403.94 10.74 401.83 12.82 C 389.67 24.67 377.84 36.84 365.72 48.72 C 363.15 51.24 360.81 53.98 358.64 56.84 C 357.10 56.05 355.55 55.28 354.00 54.52 C 357.90 51.63 361.41 48.26 364.75 44.75 C 376.20 33.19 387.81 21.80 399.18 10.17 Z" />
<path fill="#070706" opacity="0.11" d=" M 502.72 26.69 C 504.25 25.31 506.20 24.55 508.07 23.73 C 505.92 29.84 500.60 33.78 496.26 38.26 C 490.84 43.52 485.80 49.17 480.04 54.08 C 480.03 52.13 480.03 50.19 480.03 48.24 C 488.56 42.14 495.12 33.83 502.72 26.69 Z" />
<path fill="#070706" opacity="0.11" d=" M 502.72 46.70 C 504.25 45.31 506.20 44.55 508.08 43.73 C 505.92 49.83 500.60 53.79 496.26 58.27 C 490.84 63.52 485.79 69.17 480.04 74.07 C 480.03 72.13 480.03 70.19 480.03 68.25 C 488.55 62.13 495.12 53.84 502.72 46.70 Z" />
<path fill="#070706" opacity="0.11" d=" M 502.73 66.70 C 504.26 65.31 506.21 64.55 508.08 63.74 C 505.92 69.83 500.60 73.78 496.26 78.26 C 490.84 83.52 485.80 89.17 480.04 94.08 C 480.03 92.13 480.03 90.19 480.03 88.25 C 488.55 82.13 495.12 73.83 502.73 66.70 Z" />
<path fill="#070706" opacity="0.11" d=" M 502.73 86.70 C 504.26 85.31 506.21 84.55 508.08 83.73 C 505.91 89.83 500.60 93.79 496.26 98.26 C 490.84 103.52 485.80 109.18 480.04 114.07 C 480.03 112.13 480.03 110.19 480.03 108.25 C 488.55 102.13 495.12 93.83 502.73 86.70 Z" />
<path fill="#070706" opacity="0.11" d=" M 249.37 98.58 C 251.31 98.50 253.25 98.46 255.20 98.44 C 250.01 105.12 243.67 110.74 237.76 116.76 C 180.10 174.44 122.42 232.09 64.76 289.77 C 60.07 294.29 55.27 298.79 51.62 304.24 C 49.71 304.24 47.80 304.23 45.90 304.24 C 50.14 298.75 55.42 294.21 60.24 289.24 C 119.57 229.90 178.91 170.57 238.24 111.24 C 242.28 107.33 246.51 103.50 249.37 98.58 Z" />
<path fill="#070706" opacity="0.11" d=" M 269.37 98.94 C 271.05 99.07 272.74 99.22 274.42 99.39 C 268.25 106.86 261.01 113.33 254.26 120.26 C 195.24 179.25 136.29 238.31 77.22 297.24 C 75.16 299.42 73.37 301.82 71.62 304.24 C 69.69 304.24 67.76 304.24 65.83 304.24 C 67.91 301.85 70.01 299.49 72.23 297.23 C 133.58 235.92 194.90 174.56 256.24 113.24 C 260.89 108.73 265.62 104.25 269.37 98.94 Z" />
<path fill="#070706" opacity="0.11" d=" M 287.15 101.19 C 289.42 101.62 291.69 102.06 293.95 102.57 C 288.03 105.50 283.80 110.64 279.27 115.27 C 218.56 175.89 157.97 236.65 97.22 297.24 C 95.16 299.41 93.37 301.82 91.63 304.24 C 89.69 304.24 87.76 304.24 85.83 304.24 C 87.90 301.85 90.01 299.49 92.22 297.23 C 152.76 236.76 213.22 176.23 273.74 115.74 C 278.49 111.16 283.24 106.53 287.15 101.19 Z" />
<path fill="#070706" opacity="0.11" d=" M 496.23 113.23 C 499.84 109.69 503.01 105.29 508.07 103.73 C 505.91 109.83 500.60 113.78 496.26 118.26 C 490.84 123.51 485.80 129.17 480.04 134.07 C 480.03 132.13 480.03 130.19 480.03 128.25 C 486.12 124.03 490.99 118.40 496.23 113.23 Z" />
<path fill="#070706" opacity="0.11" d=" M 331.32 116.45 C 332.70 117.19 334.08 117.95 335.45 118.72 C 318.73 136.23 301.28 153.03 284.26 170.26 C 245.76 208.77 207.25 247.26 168.77 285.77 C 162.94 291.82 156.31 297.19 151.62 304.24 C 149.68 304.24 147.76 304.24 145.83 304.24 C 154.75 294.06 164.81 284.95 174.24 275.24 C 225.08 224.41 275.89 173.53 326.77 122.75 C 328.49 120.80 329.92 118.63 331.32 116.45 Z" />
<path fill="#070706" opacity="0.11" d=" M 344.38 124.15 C 345.62 124.98 346.85 125.83 348.07 126.70 C 325.23 148.97 302.90 171.78 280.26 194.26 C 248.42 226.09 216.60 257.93 184.77 289.76 C 180.07 294.29 175.27 298.79 171.62 304.24 C 169.69 304.24 167.76 304.24 165.83 304.24 C 171.23 297.87 177.37 292.17 183.25 286.24 C 231.06 238.39 278.91 190.58 326.73 142.74 C 332.69 136.61 339.21 131.00 344.38 124.15 Z" />
<path fill="#070706" opacity="0.11" d=" M 496.23 133.24 C 499.84 129.69 503.01 125.29 508.08 123.74 C 505.91 129.83 500.60 133.79 496.26 138.26 C 490.84 143.51 485.80 149.17 480.04 154.08 C 480.03 152.13 480.03 150.19 480.03 148.25 C 486.12 144.03 490.99 138.41 496.23 133.24 Z" />
<path fill="#070706" opacity="0.11" d=" M 356.25 132.92 C 357.28 133.76 358.30 134.62 359.31 135.49 C 342.36 151.80 325.98 168.71 309.26 185.26 C 274.43 220.10 239.59 254.93 204.76 289.76 C 200.07 294.29 195.27 298.79 191.62 304.24 C 189.69 304.24 187.76 304.24 185.83 304.24 C 187.91 301.86 190.01 299.49 192.23 297.23 C 230.24 259.25 268.24 221.24 306.24 183.24 C 322.86 166.42 339.88 149.99 356.25 132.92 Z" />
<path fill="#070706" opacity="0.11" d=" M 496.23 153.23 C 499.84 149.69 503.00 145.29 508.07 143.74 C 505.92 149.84 500.60 153.79 496.26 158.27 C 490.83 163.52 485.80 169.17 480.04 174.07 C 480.03 172.13 480.03 170.19 480.03 168.25 C 486.12 164.02 490.99 158.41 496.23 153.23 Z" />
<path fill="#070706" opacity="0.11" d=" M 44.25 165.25 C 48.51 161.09 52.27 156.30 57.49 153.25 C 55.69 156.80 54.14 160.47 52.24 163.98 C 49.64 165.77 46.88 167.37 44.69 169.69 C 34.38 180.38 23.65 190.65 13.33 201.33 C 11.12 203.65 8.49 205.50 5.71 207.06 C 6.59 204.14 7.88 201.28 10.18 199.18 C 21.63 187.97 32.87 176.53 44.25 165.25 Z" />
<path fill="#070706" opacity="0.11" d=" M 496.23 173.23 C 499.84 169.69 503.01 165.28 508.07 163.73 C 505.93 169.84 500.60 173.79 496.26 178.26 C 490.84 183.52 485.80 189.17 480.04 194.08 C 480.03 192.13 480.03 190.19 480.03 188.25 C 486.12 184.02 491.00 178.41 496.23 173.23 Z" />
<path fill="#070706" opacity="0.11" d=" M 59.36 169.13 C 60.68 169.70 61.99 170.27 63.31 170.85 C 60.00 174.68 56.39 178.23 52.76 181.76 C 40.93 193.60 29.08 205.42 17.27 217.27 C 13.79 220.95 10.28 224.73 5.70 227.06 C 6.58 224.13 7.89 221.27 10.18 219.18 C 24.50 205.16 38.50 190.83 52.78 176.77 C 55.17 174.40 57.34 171.82 59.36 169.13 Z" />
<path fill="#070706" opacity="0.11" d=" M 73.34 175.13 C 74.64 175.69 75.95 176.26 77.25 176.83 C 74.00 180.70 70.39 184.24 66.76 187.76 C 50.09 204.43 33.43 221.10 16.76 237.76 C 13.16 241.32 9.99 245.71 4.92 247.27 C 6.15 244.27 7.84 241.45 10.19 239.20 C 27.79 221.79 45.20 204.21 62.75 186.75 C 66.53 183.12 70.26 179.39 73.34 175.13 Z" />
<path fill="#070706" opacity="0.11" d=" M 87.33 181.15 C 88.66 181.72 89.99 182.29 91.32 182.86 C 86.92 187.94 81.97 192.48 77.26 197.26 C 57.59 216.92 37.93 236.60 18.26 256.26 C 14.40 260.21 10.72 264.52 5.71 267.06 C 6.99 261.04 12.18 257.38 16.23 253.24 C 34.90 234.57 53.58 215.91 72.24 197.23 C 77.36 191.96 83.02 187.15 87.33 181.15 Z" />
<path fill="#070706" opacity="0.11" d=" M 495.73 193.74 C 499.55 190.07 502.77 185.37 508.07 183.73 C 505.92 189.83 500.60 193.78 496.26 198.26 C 429.43 265.10 362.60 331.93 295.76 398.76 C 292.07 402.34 287.88 405.73 286.09 410.74 C 283.40 411.27 280.69 411.71 277.98 412.10 C 283.63 405.40 290.10 399.48 296.24 393.24 C 355.58 333.90 414.91 274.55 474.26 215.23 C 476.12 213.14 477.60 210.76 479.22 208.48 C 479.46 208.33 479.95 208.01 480.19 207.86 C 486.24 204.19 490.69 198.58 495.73 193.74 Z" />
<path fill="#070706" opacity="0.11" d=" M 101.33 187.15 C 102.64 187.71 103.94 188.27 105.25 188.83 C 101.99 192.70 98.38 196.24 94.76 199.76 C 68.76 225.76 42.76 251.76 16.76 277.77 C 13.16 281.32 10.00 285.72 4.93 287.26 C 6.08 284.50 7.56 281.83 9.71 279.71 C 35.10 254.44 60.39 229.06 85.74 203.74 C 91.01 198.28 96.88 193.34 101.33 187.15 Z" />
<path fill="#070706" opacity="0.11" d=" M 501.21 208.20 C 503.03 206.50 505.15 205.18 507.29 203.94 C 506.47 206.37 505.62 208.89 503.79 210.77 C 444.08 270.39 384.45 330.11 324.76 389.76 C 320.76 393.59 316.47 397.36 314.13 402.51 C 310.81 403.88 307.40 404.98 304.00 406.11 C 307.96 401.07 312.75 396.78 317.25 392.24 C 378.55 330.87 439.96 269.61 501.21 208.20 Z" />
<path fill="#070706" opacity="0.11" d=" M 224.24 285.24 C 249.83 259.66 275.38 234.05 301.00 208.50 C 302.38 208.43 303.77 208.38 305.17 208.34 C 301.22 213.61 296.47 218.18 291.76 222.76 C 269.43 245.09 247.10 267.43 224.76 289.76 C 220.02 294.37 215.33 299.06 211.12 304.17 C 209.35 304.19 207.60 304.22 205.84 304.24 C 211.54 297.49 218.06 291.52 224.24 285.24 Z" />
<path fill="#070706" opacity="0.11" d=" M 319.43 208.29 C 321.35 208.29 323.28 208.30 325.21 208.31 C 321.39 213.40 316.82 217.85 312.26 222.27 C 262.08 272.42 211.94 322.61 161.75 372.76 C 159.74 374.80 157.77 376.88 155.81 378.97 C 154.80 378.13 153.80 377.27 152.80 376.41 C 154.97 374.37 157.12 372.33 159.24 370.25 C 208.40 321.07 257.57 271.91 306.73 222.74 C 311.38 218.31 316.17 213.90 319.43 208.29 Z" />
<path fill="#070706" opacity="0.11" d=" M 339.43 208.29 C 341.35 208.29 343.28 208.30 345.21 208.31 C 341.25 213.59 336.48 218.17 331.76 222.76 C 282.93 271.60 234.09 320.42 185.27 369.27 C 179.35 375.36 172.85 380.94 167.71 387.74 C 166.59 386.99 165.48 386.22 164.39 385.45 C 170.57 378.62 177.26 372.29 183.74 365.74 C 231.40 318.07 279.07 270.40 326.74 222.74 C 331.39 218.31 336.17 213.90 339.43 208.29 Z" />
<path fill="#070706" opacity="0.11" d=" M 359.42 208.29 C 361.35 208.29 363.28 208.30 365.21 208.31 C 360.97 213.98 355.78 218.80 350.75 223.76 C 299.94 274.61 249.08 325.42 198.27 376.27 C 192.19 382.51 185.51 388.22 180.30 395.27 C 179.05 394.59 177.81 393.91 176.58 393.21 C 185.35 383.78 194.71 374.92 203.74 365.74 C 251.40 318.07 299.07 270.41 346.74 222.74 C 351.38 218.31 356.16 213.90 359.42 208.29 Z" />
<path fill="#070706" opacity="0.11" d=" M 379.42 208.29 C 381.35 208.29 383.28 208.30 385.21 208.31 C 381.39 213.40 376.83 217.85 372.27 222.27 C 314.57 279.91 256.95 337.64 199.23 395.25 C 197.41 397.29 195.91 399.58 194.44 401.88 C 192.61 401.14 190.79 400.38 188.99 399.57 C 195.51 394.63 200.91 388.45 206.73 382.73 C 262.61 326.93 318.37 271.01 374.29 215.26 C 376.24 213.12 377.84 210.70 379.42 208.29 Z" />
<path fill="#070706" opacity="0.11" d=" M 399.42 208.29 C 401.35 208.29 403.28 208.30 405.21 208.31 C 401.25 213.59 396.48 218.17 391.76 222.76 C 336.60 277.93 281.42 333.09 226.27 388.27 C 220.32 394.38 213.78 399.97 208.66 406.85 C 207.25 406.42 205.84 405.96 204.44 405.51 C 210.85 398.25 217.94 391.64 224.74 384.74 C 281.26 328.25 337.71 271.69 394.29 215.25 C 396.24 213.12 397.84 210.70 399.42 208.29 Z" />
<path fill="#070706" opacity="0.11" d=" M 419.42 208.29 C 421.35 208.29 423.28 208.30 425.21 208.31 C 421.25 213.59 416.48 218.17 411.76 222.76 C 353.76 280.76 295.76 338.76 237.77 396.76 C 233.22 401.05 228.58 405.37 225.47 410.87 C 223.29 410.47 221.11 410.03 218.95 409.54 C 225.36 404.82 230.59 398.78 236.23 393.23 C 295.61 333.93 354.88 274.51 414.29 215.25 C 416.24 213.12 417.84 210.70 419.42 208.29 Z" />
<path fill="#070706" opacity="0.11" d=" M 439.43 208.29 C 441.35 208.29 443.28 208.30 445.21 208.31 C 441.25 213.59 436.48 218.17 431.76 222.76 C 373.26 281.26 314.76 339.76 256.26 398.26 C 251.46 402.95 246.51 407.55 242.63 413.05 C 240.95 412.92 239.27 412.76 237.60 412.59 C 245.36 403.39 254.39 395.38 262.74 386.74 C 319.93 329.59 377.04 272.35 434.28 215.25 C 436.24 213.12 437.84 210.70 439.43 208.29 Z" />
<path fill="#070706" opacity="0.11" d=" M 459.42 208.29 C 461.35 208.29 463.28 208.30 465.21 208.30 C 459.82 215.48 452.97 221.33 446.76 227.76 C 389.09 285.42 331.45 343.12 273.74 400.74 C 269.61 404.59 265.66 408.67 262.59 413.44 C 260.66 413.51 258.73 413.54 256.80 413.56 C 263.68 404.91 272.12 397.70 279.74 389.74 C 334.07 335.40 388.41 281.08 442.73 226.73 C 448.45 220.73 455.20 215.56 459.42 208.29 Z" />
<path fill="#070706" opacity="0.11" d=" M 501.21 228.20 C 503.03 226.50 505.15 225.18 507.29 223.94 C 506.43 226.61 505.38 229.32 503.31 231.30 C 474.03 260.36 444.98 289.66 415.72 318.74 C 414.02 320.58 412.72 322.73 411.45 324.88 C 409.63 324.10 407.81 323.30 406.00 322.51 C 412.05 318.14 416.90 312.40 422.24 307.23 C 448.56 280.88 474.95 254.60 501.21 228.20 Z" />
<path fill="#070706" opacity="0.11" d=" M 494.74 254.74 C 498.60 250.78 502.28 246.48 507.29 243.93 C 506.44 246.61 505.38 249.31 503.31 251.30 C 480.38 274.03 457.64 296.97 434.75 319.75 C 431.18 323.03 427.70 326.52 425.45 330.88 C 423.63 330.10 421.81 329.32 420.00 328.54 C 425.84 324.27 430.58 318.77 435.73 313.73 C 455.42 294.08 475.07 274.40 494.74 254.74 Z" />
<path fill="#070706" opacity="0.11" d=" M 495.74 273.74 C 499.55 270.06 502.78 265.37 508.07 263.73 C 506.02 269.61 500.97 273.48 496.76 277.76 C 482.43 292.09 468.09 306.42 453.77 320.77 C 448.89 326.03 442.75 330.32 439.50 336.91 C 437.66 336.12 435.82 335.34 433.99 334.55 C 439.84 330.28 444.58 324.77 449.73 319.73 C 465.08 304.41 480.40 289.06 495.74 273.74 Z" />
<path fill="#070706" opacity="0.11" d=" M 493.24 296.25 C 497.70 291.90 501.63 286.82 507.29 283.94 C 506.41 286.86 505.12 289.72 502.82 291.82 C 489.18 305.18 475.83 318.83 462.24 332.23 C 458.82 335.34 455.61 338.74 453.46 342.86 C 451.62 342.08 449.78 341.31 447.95 340.54 C 453.66 336.46 458.25 331.12 463.23 326.23 C 473.25 316.25 483.22 306.23 493.24 296.25 Z" />
<path fill="#070706" opacity="0.11" d=" M 499.67 309.67 C 501.88 307.35 504.51 305.50 507.29 303.94 C 506.41 306.86 505.11 309.72 502.82 311.81 C 491.37 323.03 480.13 334.46 468.75 345.75 C 464.49 349.91 460.72 354.70 455.51 357.75 C 457.34 354.07 458.81 350.16 461.25 346.82 C 463.64 345.04 466.21 343.46 468.30 341.30 C 478.63 330.63 489.35 320.35 499.67 309.67 Z" />
<path fill="#070706" opacity="0.11" d=" M 16.24 333.23 C 21.49 328.14 26.38 322.66 31.98 317.93 C 31.98 319.84 31.98 321.75 31.99 323.66 C 26.24 327.60 21.69 332.91 16.77 337.77 C 13.16 341.32 9.98 345.70 4.92 347.27 C 6.98 341.39 12.02 337.51 16.24 333.23 Z" />
<path fill="#070706" opacity="0.11" d=" M 495.73 333.73 C 499.20 330.05 502.72 326.27 507.30 323.94 C 506.47 326.37 505.62 328.89 503.79 330.77 C 446.09 388.41 388.42 446.09 330.77 503.79 C 328.89 505.62 326.37 506.47 323.94 507.29 C 326.18 502.94 329.69 499.52 333.22 496.23 C 353.62 475.95 373.86 455.49 394.30 435.26 C 395.81 433.68 396.54 431.58 397.52 429.67 C 409.10 419.86 419.85 409.11 429.66 397.53 C 431.57 396.54 433.67 395.82 435.26 394.31 C 455.32 374.02 475.60 353.95 495.73 333.73 Z" />
<path fill="#070706" opacity="0.11" d=" M 12.70 356.70 C 19.23 350.55 25.16 343.76 31.98 337.93 C 31.98 339.84 31.98 341.75 31.98 343.66 C 23.81 349.49 17.57 357.50 10.28 364.31 C 8.75 365.70 6.79 366.45 4.92 367.27 C 6.45 363.05 9.46 359.68 12.70 356.70 Z" />
<path fill="#070706" opacity="0.11" d=" M 502.73 346.70 C 504.26 345.31 506.21 344.55 508.07 343.74 C 505.91 349.83 500.61 353.79 496.27 358.26 C 450.26 404.26 404.26 450.26 358.27 496.26 C 353.78 500.60 349.83 505.92 343.73 508.08 C 345.37 502.78 350.06 499.54 353.74 495.74 C 403.39 446.05 453.12 396.42 502.73 346.70 Z" />
<path fill="#070706" opacity="0.11" d=" M 12.70 376.70 C 19.23 370.54 25.16 363.77 31.98 357.93 C 31.98 359.84 31.98 361.75 31.98 363.66 C 23.81 369.49 17.57 377.50 10.27 384.31 C 8.74 385.69 6.79 386.44 4.92 387.27 C 6.47 383.06 9.46 379.69 12.70 376.70 Z" />
<path fill="#070706" opacity="0.11" d=" M 502.72 366.70 C 504.25 365.30 506.20 364.54 508.08 363.73 C 505.93 369.83 500.60 373.78 496.26 378.27 C 456.93 417.59 417.59 456.93 378.26 496.26 C 373.78 500.60 369.83 505.92 363.73 508.08 C 365.36 502.77 370.06 499.55 373.74 495.74 C 416.72 452.71 459.79 409.76 502.72 366.70 Z" />
<path fill="#070706" opacity="0.11" d=" M 12.70 396.70 C 19.23 390.55 25.16 383.77 31.98 377.93 C 31.98 379.84 31.98 381.75 31.98 383.66 C 26.24 387.59 21.69 392.92 16.77 397.77 C 13.15 401.31 9.99 405.71 4.93 407.27 C 6.46 403.06 9.46 399.69 12.70 396.70 Z" />
<path fill="#070706" opacity="0.11" d=" M 495.74 393.75 C 499.54 390.07 502.77 385.37 508.08 383.73 C 505.92 389.83 500.60 393.78 496.26 398.26 C 461.28 433.28 426.22 468.23 391.29 503.30 C 389.16 505.44 386.49 506.91 383.73 508.08 C 385.29 503.02 389.67 499.84 393.24 496.24 C 427.41 462.08 461.56 427.90 495.74 393.75 Z" />
<path fill="#070706" opacity="0.11" d=" M 16.23 413.24 C 21.49 408.14 26.37 402.65 31.98 397.93 C 31.98 399.83 31.98 401.74 31.98 403.66 C 23.82 409.49 17.57 417.49 10.27 424.30 C 8.74 425.68 6.79 426.44 4.93 427.27 C 6.98 421.39 12.02 417.51 16.23 413.24 Z" />
<path fill="#070706" opacity="0.11" d=" M 496.73 412.73 C 500.12 409.29 503.25 405.21 508.08 403.74 C 505.91 409.82 500.61 413.79 496.26 418.26 C 470.26 444.26 444.26 470.26 418.26 496.26 C 413.78 500.60 409.83 505.92 403.73 508.07 C 405.38 502.78 410.06 499.55 413.74 495.74 C 441.40 468.07 469.08 440.41 496.73 412.73 Z" />
<path fill="#070706" opacity="0.11" d=" M 16.24 433.23 C 21.49 428.14 26.38 422.66 31.98 417.93 C 31.98 419.83 31.98 421.74 31.98 423.66 C 23.82 429.50 17.57 437.49 10.27 444.30 C 8.74 445.69 6.79 446.44 4.93 447.27 C 6.99 441.39 12.02 437.51 16.24 433.23 Z" />
<path fill="#070706" opacity="0.11" d=" M 106.32 422.24 C 107.54 423.32 108.77 424.39 110.00 425.45 C 105.92 428.51 102.26 432.07 98.75 435.75 C 76.30 458.30 53.70 480.71 31.30 503.31 C 29.32 505.39 26.61 506.44 23.93 507.28 C 26.82 501.63 31.90 497.69 36.25 493.24 C 54.73 474.72 73.25 456.25 91.73 437.73 C 96.70 432.67 102.10 427.98 106.32 422.24 Z" />
<path fill="#070706" opacity="0.11" d=" M 496.24 433.23 C 499.84 429.68 503.01 425.29 508.07 423.73 C 506.01 429.60 500.98 433.48 496.77 437.77 C 477.09 457.42 457.43 477.10 437.77 496.76 C 433.48 500.97 429.60 506.02 423.73 508.08 C 425.37 502.78 430.06 499.55 433.74 495.74 C 454.57 474.90 475.41 454.07 496.24 433.23 Z" />
<path fill="#070706" opacity="0.11" d=" M 97.74 451.74 C 104.35 445.07 111.14 438.57 117.47 431.61 C 118.65 432.55 119.84 433.49 121.04 434.42 C 116.55 437.75 112.63 441.75 108.76 445.76 C 91.76 462.77 74.75 479.76 57.76 496.77 C 53.49 500.98 49.60 506.01 43.73 508.07 C 45.29 503.00 49.68 499.84 53.24 496.24 C 68.07 481.41 82.90 466.57 97.74 451.74 Z" />
<path fill="#070706" opacity="0.11" d=" M 16.24 453.23 C 21.49 448.14 26.38 442.65 31.98 437.93 C 31.98 439.83 31.98 441.74 31.98 443.66 C 23.81 449.49 17.57 457.50 10.27 464.30 C 8.74 465.69 6.79 466.44 4.93 467.26 C 6.98 461.39 12.03 457.51 16.24 453.23 Z" />
<path fill="#070706" opacity="0.11" d=" M 128.60 439.94 C 129.81 440.78 131.02 441.62 132.25 442.43 C 114.44 459.89 96.95 477.67 79.26 495.26 C 74.39 499.86 70.28 505.72 63.74 508.08 C 65.28 503.00 69.68 499.84 73.24 496.24 C 86.57 482.90 99.91 469.57 113.24 456.24 C 118.45 450.89 124.14 445.97 128.60 439.94 Z" />
<path fill="#070706" opacity="0.11" d=" M 495.74 453.74 C 499.54 450.06 502.78 445.37 508.08 443.74 C 506.00 449.60 500.98 453.49 496.77 457.77 C 483.76 470.76 470.76 483.76 457.77 496.77 C 453.48 500.97 449.61 506.02 443.73 508.08 C 445.28 503.01 449.68 499.84 453.24 496.24 C 467.41 482.07 481.57 467.90 495.74 453.74 Z" />
<path fill="#070706" opacity="0.11" d=" M 140.72 447.78 C 142.16 448.65 143.63 449.50 145.08 450.36 C 140.78 453.58 136.97 457.38 133.26 461.26 C 119.46 475.12 105.54 488.88 91.80 502.81 C 89.55 505.16 86.73 506.85 83.73 508.07 C 85.22 503.25 89.29 500.12 92.73 496.73 C 106.60 482.93 120.36 469.03 134.27 455.27 C 136.60 452.93 138.70 450.38 140.72 447.78 Z" />
<path fill="#070706" opacity="0.11" d=" M 153.56 455.02 C 155.33 455.90 157.10 456.78 158.89 457.65 C 156.48 458.87 154.10 460.23 152.20 462.18 C 138.89 475.88 125.16 489.16 111.82 502.82 C 109.72 505.12 106.86 506.41 103.94 507.29 C 106.82 501.63 111.90 497.69 116.24 493.24 C 123.56 485.90 130.91 478.58 138.23 471.24 C 143.44 465.92 149.07 460.99 153.56 455.02 Z" />
<path fill="#070706" opacity="0.11" d=" M 346.99 460.76 C 350.56 458.98 354.20 457.35 357.77 455.56 C 354.50 460.90 349.55 464.82 345.25 469.26 C 334.12 480.46 322.87 491.54 311.81 502.83 C 309.72 505.12 306.86 506.42 303.94 507.29 C 306.80 501.63 311.90 497.70 316.24 493.24 C 324.42 485.09 332.51 476.84 340.81 468.80 C 343.28 466.45 345.02 463.51 346.99 460.76 Z" />
<path fill="#070706" opacity="0.11" d=" M 16.23 473.23 C 21.49 468.14 26.38 462.65 31.98 457.93 C 31.98 459.83 31.98 461.74 31.98 463.66 C 23.82 469.50 17.57 477.49 10.27 484.30 C 8.74 485.69 6.79 486.45 4.93 487.27 C 6.99 481.40 12.02 477.51 16.23 473.23 Z" />
<path fill="#070706" opacity="0.11" d=" M 166.48 461.13 C 168.30 461.94 170.13 462.72 171.98 463.48 C 169.26 465.56 166.62 467.77 164.22 470.22 C 154.50 480.16 144.53 489.87 134.79 499.79 C 131.63 503.18 128.18 506.47 123.73 508.08 C 125.37 502.78 130.06 499.54 133.74 495.74 C 140.57 488.90 147.42 482.08 154.23 475.23 C 158.58 470.78 163.69 466.86 166.48 461.13 Z" />
<path fill="#070706" opacity="0.11" d=" M 501.67 467.66 C 503.41 465.79 505.74 464.67 508.08 463.74 C 506.00 469.60 500.97 473.48 496.76 477.77 C 490.43 484.09 484.09 490.42 477.77 496.76 C 473.49 500.98 469.60 506.01 463.73 508.07 C 465.38 502.78 470.06 499.55 473.74 495.74 C 483.04 486.37 492.48 477.14 501.67 467.66 Z" />
<path fill="#070706" opacity="0.11" d=" M 181.37 467.10 C 182.93 467.64 184.50 468.17 186.06 468.71 C 176.58 477.68 167.54 487.09 158.26 496.26 C 153.91 500.42 150.21 505.94 143.94 507.29 C 147.57 500.41 154.10 495.88 159.24 490.24 C 166.55 482.47 174.90 475.63 181.37 467.10 Z" />
<path fill="#070706" opacity="0.11" d=" M 316.09 471.80 C 318.67 471.07 321.25 470.35 323.82 469.57 C 320.65 474.69 315.92 478.49 311.75 482.75 C 305.11 489.44 298.40 496.07 291.82 502.82 C 289.72 505.11 286.86 506.41 283.94 507.30 C 287.43 500.60 293.74 496.18 298.74 490.74 C 304.56 484.47 311.59 479.20 316.09 471.80 Z" />
<path fill="#070706" opacity="0.11" d=" M 197.16 472.02 C 199.10 472.54 201.04 473.01 202.99 473.50 C 200.33 474.87 197.76 476.49 195.69 478.68 C 187.86 486.85 179.69 494.69 171.82 502.82 C 169.72 505.12 166.86 506.41 163.94 507.29 C 166.80 501.62 171.90 497.70 176.25 493.24 C 183.22 486.17 190.40 479.29 197.16 472.02 Z" />
<path fill="#070706" opacity="0.11" d=" M 290.12 477.42 C 292.81 476.99 295.51 476.54 298.19 476.03 C 291.67 483.22 284.54 489.82 277.76 496.76 C 273.62 500.81 269.97 506.01 263.94 507.29 C 267.04 501.20 272.65 497.11 277.23 492.24 C 281.73 487.48 287.28 483.50 290.12 477.42 Z" />
<path fill="#070706" opacity="0.11" d=" M 228.56 478.22 C 230.74 478.50 232.91 478.77 235.10 478.98 C 228.29 486.85 220.41 493.72 213.32 501.33 C 210.83 504.18 207.65 506.37 203.94 507.30 C 207.56 500.42 214.09 495.87 219.23 490.24 C 222.60 486.49 227.74 483.62 228.56 478.22 Z" />
<path fill="#070706" opacity="0.11" d=" M 248.35 479.85 C 250.25 479.91 252.16 479.96 254.07 480.00 C 249.20 485.80 243.52 490.83 238.26 496.26 C 233.79 500.61 229.83 505.91 223.73 508.07 C 225.37 502.77 230.08 499.56 233.74 495.74 C 238.72 490.55 244.42 485.96 248.35 479.85 Z" />
<path fill="#070706" opacity="0.11" d=" M 268.39 479.66 C 270.21 479.56 272.04 479.46 273.87 479.33 C 270.32 485.45 264.48 489.63 259.75 494.76 C 254.69 499.49 250.50 505.62 243.73 508.07 C 245.46 502.54 250.46 499.27 254.23 495.24 C 259.09 490.18 264.72 485.74 268.39 479.66 Z" />
</g>
<g id="#231f20ff">
<path fill="#231f20" opacity="1.00" d=" M 221.99 34.63 C 227.36 33.87 232.74 33.19 238.14 32.70 C 239.96 32.57 241.78 32.46 243.61 32.37 C 248.38 32.14 253.15 31.99 257.92 32.04 C 259.83 32.07 261.74 32.11 263.66 32.17 C 268.08 32.29 272.49 32.60 276.90 32.98 C 279.59 33.23 282.27 33.57 284.95 33.88 C 288.24 34.26 291.52 34.73 294.78 35.31 C 296.35 35.59 297.93 35.88 299.50 36.18 C 303.00 36.88 306.48 37.70 309.96 38.52 C 311.83 38.98 313.69 39.46 315.54 39.97 C 319.25 41.00 322.95 42.09 326.60 43.30 C 327.99 43.77 329.38 44.25 330.77 44.74 C 334.14 45.91 337.47 47.19 340.78 48.54 C 342.42 49.22 344.06 49.92 345.69 50.64 C 348.48 51.88 351.25 53.18 354.00 54.52 C 355.55 55.28 357.10 56.05 358.64 56.84 C 361.49 58.28 364.29 59.83 367.07 61.42 C 368.54 62.27 370.01 63.12 371.47 63.99 C 374.33 65.72 377.14 67.52 379.92 69.38 C 381.13 70.21 382.35 71.04 383.56 71.89 C 386.12 73.68 388.66 75.51 391.15 77.40 C 392.32 78.29 393.49 79.19 394.65 80.09 C 397.25 82.08 399.76 84.18 402.22 86.34 C 403.35 87.33 404.47 88.32 405.60 89.32 C 408.58 91.98 411.48 94.74 414.35 97.53 C 436.42 75.87 458.06 53.77 480.02 32.01 C 480.03 37.42 480.01 42.83 480.03 48.24 C 480.03 50.19 480.03 52.13 480.04 54.08 C 480.02 58.80 480.01 63.52 480.03 68.25 C 480.03 70.19 480.03 72.13 480.04 74.07 C 480.02 78.80 480.01 83.52 480.03 88.25 C 480.03 90.19 480.03 92.13 480.04 94.08 C 480.02 98.80 480.01 103.52 480.03 108.25 C 480.03 110.19 480.03 112.13 480.04 114.07 C 480.02 118.80 480.01 123.52 480.03 128.25 C 480.03 130.19 480.03 132.13 480.04 134.07 C 480.02 138.80 480.01 143.52 480.03 148.25 C 480.03 150.19 480.03 152.13 480.04 154.08 C 480.02 158.80 480.01 163.52 480.03 168.25 C 480.03 170.19 480.03 172.13 480.04 174.07 C 480.02 178.80 480.01 183.52 480.03 188.25 C 480.03 190.19 480.03 192.13 480.04 194.08 C 480.04 198.67 479.90 203.27 480.19 207.86 C 479.95 208.01 479.46 208.33 479.22 208.48 C 474.55 208.28 469.88 208.24 465.21 208.30 C 463.28 208.30 461.35 208.29 459.42 208.29 C 454.68 208.26 449.95 208.28 445.21 208.31 C 443.28 208.30 441.35 208.29 439.43 208.29 C 434.68 208.26 429.95 208.28 425.21 208.31 C 423.28 208.30 421.35 208.29 419.42 208.29 C 414.68 208.26 409.95 208.28 405.21 208.31 C 403.28 208.30 401.35 208.29 399.42 208.29 C 394.68 208.26 389.94 208.28 385.21 208.31 C 383.28 208.30 381.35 208.29 379.42 208.29 C 374.68 208.26 369.95 208.28 365.21 208.31 C 363.28 208.30 361.35 208.29 359.42 208.29 C 354.68 208.26 349.95 208.28 345.21 208.31 C 343.28 208.30 341.35 208.29 339.43 208.29 C 334.69 208.26 329.95 208.28 325.21 208.31 C 323.28 208.30 321.35 208.29 319.43 208.29 C 314.67 208.27 309.92 208.22 305.17 208.34 C 303.77 208.38 302.38 208.43 301.00 208.50 C 323.17 186.70 345.38 164.94 367.56 143.15 C 364.86 140.53 362.16 137.93 359.31 135.49 C 358.30 134.62 357.28 133.76 356.25 132.92 C 353.58 130.77 350.86 128.69 348.07 126.70 C 346.85 125.83 345.62 124.98 344.38 124.15 C 341.47 122.24 338.49 120.43 335.45 118.72 C 334.08 117.95 332.70 117.19 331.32 116.45 C 328.38 114.91 325.42 113.42 322.39 112.10 C 321.02 111.51 319.66 110.93 318.30 110.37 C 315.01 109.01 311.69 107.73 308.32 106.62 C 306.71 106.09 305.09 105.59 303.47 105.11 C 300.31 104.19 297.14 103.34 293.95 102.57 C 291.69 102.06 289.42 101.62 287.15 101.19 C 282.93 100.41 278.69 99.79 274.42 99.39 C 272.74 99.22 271.05 99.07 269.37 98.94 C 264.66 98.54 259.93 98.38 255.20 98.44 C 253.25 98.46 251.31 98.50 249.37 98.58 C 244.26 98.78 239.16 99.22 234.12 100.02 C 231.18 100.45 228.25 100.90 225.34 101.49 C 219.09 102.77 212.88 104.32 206.86 106.46 C 203.29 107.64 199.75 108.93 196.29 110.41 C 159.36 125.59 128.87 155.57 112.62 191.99 C 110.17 190.93 107.71 189.87 105.25 188.83 C 103.94 188.27 102.64 187.71 101.33 187.15 C 97.99 185.71 94.67 184.26 91.32 182.86 C 89.99 182.29 88.66 181.72 87.33 181.15 C 83.98 179.68 80.62 178.25 77.25 176.83 C 75.95 176.26 74.64 175.69 73.34 175.13 C 70.00 173.68 66.64 172.30 63.31 170.85 C 61.99 170.27 60.68 169.70 59.36 169.13 C 56.69 168.00 54.02 166.86 51.39 165.62 C 51.61 165.21 52.03 164.39 52.24 163.98 C 54.14 160.47 55.69 156.80 57.49 153.25 C 64.64 139.68 73.06 126.77 82.67 114.82 C 91.34 104.22 101.03 94.53 111.22 85.41 C 124.50 74.30 138.95 64.57 154.29 56.53 C 157.85 54.78 161.44 53.09 165.05 51.44 C 172.19 48.26 179.50 45.47 186.91 43.00 C 189.92 42.05 192.94 41.13 195.97 40.25 C 202.31 38.42 208.78 37.03 215.25 35.72 C 217.49 35.33 219.74 34.98 221.99 34.63 Z" />
<path fill="#231f20" opacity="1.00" d=" M 32.03 304.25 C 36.65 304.29 41.27 304.26 45.90 304.24 C 47.80 304.23 49.71 304.24 51.62 304.24 C 56.36 304.27 61.09 304.27 65.83 304.24 C 67.76 304.24 69.69 304.24 71.62 304.24 C 76.36 304.27 81.09 304.27 85.83 304.24 C 87.76 304.24 89.69 304.24 91.63 304.24 C 96.68 304.27 101.73 304.26 106.79 304.24 C 108.45 304.24 110.11 304.24 111.78 304.25 C 116.78 304.28 121.79 304.26 126.79 304.24 C 128.45 304.24 130.11 304.24 131.78 304.25 C 136.46 304.27 141.15 304.26 145.83 304.24 C 147.76 304.24 149.68 304.24 151.62 304.24 C 156.35 304.27 161.09 304.27 165.83 304.24 C 167.76 304.24 169.69 304.24 171.62 304.24 C 176.36 304.27 181.10 304.27 185.83 304.24 C 187.76 304.24 189.69 304.24 191.62 304.24 C 196.36 304.27 201.10 304.28 205.84 304.24 C 207.60 304.22 209.35 304.19 211.12 304.17 C 210.19 305.22 209.23 306.26 208.25 307.27 C 187.19 327.93 165.97 348.44 144.94 369.13 C 147.53 371.59 150.11 374.06 152.80 376.41 C 153.80 377.27 154.80 378.13 155.81 378.97 C 158.58 381.24 161.45 383.40 164.39 385.45 C 165.48 386.22 166.59 386.99 167.71 387.74 C 170.61 389.66 173.57 391.48 176.58 393.21 C 177.81 393.91 179.05 394.59 180.30 395.27 C 183.16 396.78 186.05 398.22 188.99 399.57 C 190.79 400.38 192.61 401.14 194.44 401.88 C 197.73 403.19 201.06 404.42 204.44 405.51 C 205.84 405.96 207.25 406.42 208.66 406.85 C 212.06 407.85 215.50 408.74 218.95 409.54 C 221.11 410.03 223.29 410.47 225.47 410.87 C 229.49 411.58 233.53 412.16 237.60 412.59 C 239.27 412.76 240.95 412.92 242.63 413.05 C 247.34 413.44 252.07 413.60 256.80 413.56 C 258.73 413.54 260.66 413.51 262.59 413.44 C 267.74 413.24 272.88 412.82 277.98 412.10 C 280.69 411.71 283.40 411.27 286.09 410.74 C 292.13 409.51 298.14 408.05 304.00 406.11 C 307.40 404.98 310.81 403.88 314.13 402.51 C 324.93 398.12 335.36 392.74 344.89 385.99 C 360.21 375.55 373.68 362.35 384.28 347.13 C 390.51 338.68 395.61 329.46 400.00 319.94 C 402.00 320.79 404.00 321.64 406.00 322.51 C 407.81 323.30 409.63 324.10 411.45 324.88 C 414.30 326.10 417.15 327.31 420.00 328.54 C 421.81 329.32 423.63 330.10 425.45 330.88 C 428.31 332.07 431.15 333.30 433.99 334.55 C 435.82 335.34 437.66 336.12 439.50 336.91 C 442.32 338.09 445.12 339.34 447.95 340.54 C 449.78 341.31 451.62 342.08 453.46 342.86 C 456.14 343.99 458.85 345.14 461.25 346.82 C 458.81 350.16 457.34 354.07 455.51 357.75 C 448.30 371.86 439.44 385.08 429.66 397.53 C 419.85 409.11 409.10 419.86 397.52 429.67 C 385.11 439.51 371.87 448.34 357.77 455.56 C 354.20 457.35 350.56 458.98 346.99 460.76 C 339.40 464.03 331.66 466.97 323.82 469.57 C 321.25 470.35 318.67 471.07 316.09 471.80 C 310.17 473.40 304.20 474.82 298.19 476.03 C 295.51 476.54 292.81 476.99 290.12 477.42 C 284.72 478.21 279.30 478.83 273.87 479.33 C 272.04 479.46 270.21 479.56 268.39 479.66 C 263.62 479.88 258.84 480.06 254.07 480.00 C 252.16 479.96 250.25 479.91 248.35 479.85 C 243.92 479.68 239.51 479.37 235.10 478.98 C 232.91 478.77 230.74 478.50 228.56 478.22 C 224.79 477.75 221.02 477.23 217.27 476.59 C 215.61 476.29 213.95 475.98 212.30 475.67 C 209.17 475.05 206.08 474.27 202.99 473.50 C 201.04 473.01 199.10 472.54 197.16 472.02 C 193.43 471.02 189.71 469.99 186.06 468.71 C 184.50 468.17 182.93 467.64 181.37 467.10 C 178.20 465.99 175.08 464.75 171.98 463.48 C 170.13 462.72 168.30 461.94 166.48 461.13 C 163.93 459.99 161.39 458.87 158.89 457.65 C 157.10 456.78 155.33 455.90 153.56 455.02 C 150.67 453.58 147.85 452.01 145.08 450.36 C 143.63 449.50 142.16 448.65 140.72 447.78 C 137.87 446.04 135.06 444.24 132.25 442.43 C 131.02 441.62 129.81 440.78 128.60 439.94 C 126.05 438.13 123.51 436.32 121.04 434.42 C 119.84 433.49 118.65 432.55 117.47 431.61 C 114.93 429.62 112.43 427.57 110.00 425.45 C 108.77 424.39 107.54 423.32 106.32 422.24 C 103.46 419.66 100.73 416.93 97.89 414.33 C 75.84 436.14 54.01 458.17 32.05 480.07 C 31.98 474.60 32.01 469.13 31.98 463.66 C 31.98 461.74 31.98 459.83 31.98 457.93 C 32.00 453.17 32.01 448.41 31.98 443.66 C 31.98 441.74 31.98 439.83 31.98 437.93 C 32.01 433.17 32.01 428.41 31.98 423.66 C 31.98 421.74 31.98 419.83 31.98 417.93 C 32.01 413.17 32.01 408.41 31.98 403.66 C 31.98 401.74 31.98 399.83 31.98 397.93 C 32.01 393.17 32.01 388.41 31.98 383.66 C 31.98 381.75 31.98 379.84 31.98 377.93 C 32.01 373.17 32.01 368.42 31.98 363.66 C 31.98 361.75 31.98 359.84 31.98 357.93 C 32.01 353.17 32.01 348.42 31.98 343.66 C 31.98 341.75 31.98 339.84 31.98 337.93 C 32.00 333.17 32.01 328.42 31.99 323.66 C 31.98 321.75 31.98 319.84 31.98 317.93 C 32.00 313.37 32.01 308.81 32.03 304.25 Z" />
</g>
<g id="#07070619">
<path fill="#070706" opacity="0.10" d=" M 225.34 101.49 C 228.25 100.90 231.18 100.45 234.12 100.02 C 231.06 104.88 226.78 108.73 222.70 112.71 C 155.06 180.39 87.36 248.03 19.72 315.72 C 14.78 320.54 10.29 326.11 3.88 329.07 C 5.31 321.84 11.44 317.27 16.28 312.28 C 82.96 245.63 149.62 178.95 216.29 112.28 C 219.64 109.00 223.49 105.95 225.34 101.49 Z" />
<path fill="#070706" opacity="0.10" d=" M 303.47 105.11 C 305.09 105.59 306.71 106.09 308.32 106.62 C 302.11 113.63 295.29 120.06 288.71 126.71 C 238.71 176.71 188.71 226.71 138.71 276.71 C 129.77 285.93 120.21 294.55 111.78 304.25 C 110.11 304.24 108.45 304.24 106.79 304.24 C 110.75 299.41 115.18 295.01 119.65 290.65 C 179.34 231.00 238.98 171.29 298.68 111.66 C 300.49 109.64 301.99 107.38 303.47 105.11 Z" />
<path fill="#070706" opacity="0.10" d=" M 196.29 110.41 C 199.75 108.93 203.29 107.64 206.86 106.46 C 205.33 111.27 201.11 114.28 197.71 117.71 C 138.55 176.88 79.38 236.05 20.21 295.21 C 15.10 300.19 10.50 305.99 3.89 309.07 C 5.32 301.84 11.44 297.26 16.28 292.28 C 73.30 235.30 130.29 178.29 187.29 121.29 C 190.63 117.98 194.58 114.96 196.29 110.41 Z" />
<path fill="#070706" opacity="0.10" d=" M 318.30 110.37 C 319.66 110.93 321.02 111.51 322.39 112.10 C 318.33 117.43 313.49 122.06 308.71 126.71 C 257.38 178.05 206.05 229.38 154.71 280.71 C 147.09 288.58 138.90 295.91 131.78 304.25 C 130.11 304.24 128.45 304.24 126.79 304.24 C 131.19 298.86 136.21 294.03 141.16 289.16 C 196.15 234.16 251.16 179.16 306.15 124.16 C 310.61 119.95 315.14 115.70 318.30 110.37 Z" />
<path fill="#070706" opacity="0.10" d=" M 212.30 475.67 C 213.95 475.98 215.61 476.29 217.27 476.59 C 213.10 483.76 206.22 488.66 200.73 494.73 C 195.28 499.74 190.37 506.01 183.03 508.30 C 186.28 501.79 191.72 496.85 196.78 491.77 C 202.05 486.50 207.52 481.40 212.30 475.67 Z" />
<path fill="#070706" opacity="0.10" d=" M 493.76 494.76 C 498.37 490.24 502.78 485.19 508.90 482.69 C 505.98 489.92 500.19 495.37 494.70 500.68 C 491.19 504.08 487.23 507.04 482.68 508.90 C 485.01 503.23 489.53 499.01 493.76 494.76 Z" />
</g>
<g id="#0808071d">
<path fill="#080807" opacity="0.11" d=" M 366.25 363.25 C 372.13 357.74 377.12 351.08 384.28 347.13 C 373.68 362.35 360.21 375.55 344.89 385.99 C 350.99 377.51 359.08 370.77 366.25 363.25 Z" />
</g>
</svg>
