<?xml version="1.0" encoding="UTF-8" ?>
<!DOCTYPE svg PUBLIC "-//W3C//DTD SVG 1.1//EN" "http://www.w3.org/Graphics/SVG/1.1/DTD/svg11.dtd">
<svg width="135pt" height="153pt" viewBox="0 0 135 153" version="1.1" xmlns="http://www.w3.org/2000/svg">
<g id="#ffffffff">
</g>
<g id="#010101ff">
<path fill="#010101" opacity="1.00" d=" M 49.24 8.23 C 49.46 5.46 52.38 3.84 54.96 4.16 C 62.13 4.29 69.35 3.87 76.51 4.37 C 79.91 5.26 80.09 9.09 79.86 11.96 C 79.56 14.77 80.73 18.30 78.38 20.48 C 76.50 22.39 73.57 21.64 71.18 21.88 C 71.38 25.66 70.70 29.74 71.49 33.33 C 85.06 35.05 97.57 41.88 107.00 51.69 C 106.20 52.21 105.30 52.36 104.31 52.14 L 106.45 52.76 C 102.98 55.24 100.01 58.30 96.80 61.09 C 87.14 50.61 72.38 44.89 58.19 47.24 C 40.09 49.71 24.62 64.97 22.11 83.09 C 26.41 83.21 30.71 82.93 35.01 83.06 C 38.53 83.06 39.00 88.88 35.63 89.58 C 30.89 89.87 26.13 89.59 21.39 89.67 C 21.39 101.38 26.27 113.02 34.86 121.02 C 31.68 124.42 28.87 128.17 24.95 130.80 C 14.14 120.16 7.57 105.25 7.70 90.03 C 7.45 71.88 16.74 54.13 31.44 43.60 C 35.11 45.79 36.77 50.16 40.70 51.98 C 40.31 51.62 39.52 50.90 39.13 50.53 C 37.19 47.73 34.05 45.97 32.24 42.98 C 39.94 37.94 48.68 34.45 57.85 33.40 C 57.90 29.56 57.89 25.72 57.86 21.88 C 54.78 21.92 50.42 22.18 49.36 18.43 C 48.97 15.06 49.12 11.62 49.24 8.23 Z" />
<path fill="#010101" opacity="1.00" d=" M 100.82 36.17 C 103.98 33.29 105.82 27.14 110.96 27.84 C 115.09 30.16 118.57 33.57 122.02 36.81 C 118.43 39.57 115.51 43.06 112.21 46.15 C 108.82 42.38 104.92 39.13 100.82 36.17 Z" />
<path fill="#010101" opacity="1.00" d=" M 112.37 46.18 C 115.83 43.22 118.62 39.52 122.36 36.88 C 123.44 42.42 117.83 45.67 115.19 49.79 C 114.24 48.59 113.32 47.38 112.37 46.18 Z" />
<path fill="#010101" opacity="1.00" d=" M 97.31 61.98 C 100.48 58.82 103.10 53.95 107.68 52.97 C 118.91 65.48 123.53 83.35 120.57 99.82 C 119.37 107.67 115.94 114.91 111.97 121.71 C 110.60 119.74 107.02 119.06 107.20 116.39 C 106.71 116.38 105.73 116.36 105.24 116.35 C 104.28 114.61 103.21 112.93 101.71 111.61 C 111.13 96.42 109.23 75.28 97.31 61.98 Z" />
<path fill="#010101" opacity="1.00" d=" M 63.86 55.63 C 73.88 55.61 83.35 60.64 89.97 67.97 C 86.03 71.71 82.54 75.88 78.48 79.47 C 77.99 80.18 77.57 80.92 77.24 81.71 C 81.92 77.44 86.09 72.59 90.96 68.51 C 92.90 72.45 95.76 75.94 96.90 80.27 C 100.75 91.54 96.95 104.35 88.73 112.71 C 80.54 104.77 72.53 96.63 64.35 88.67 C 64.26 77.65 64.19 66.64 63.86 55.63 Z" />
<path fill="#010101" opacity="1.00" d=" M 61.13 116.00 C 61.31 112.29 67.56 112.39 67.70 116.05 C 67.93 121.67 67.68 127.31 67.80 132.93 C 81.24 131.75 94.39 124.24 101.08 112.37 C 104.52 115.73 108.14 118.88 111.35 122.46 C 103.69 132.96 92.71 141.14 80.12 144.62 C 63.15 149.51 43.94 145.96 30.02 135.03 C 28.58 133.96 27.29 132.60 25.56 132.01 C 28.40 127.94 32.12 124.62 35.99 121.56 C 37.15 123.53 39.18 124.70 41.02 125.94 C 46.97 129.83 53.88 132.27 60.97 132.80 C 61.00 127.21 60.63 121.58 61.13 116.00 Z" />
</g>
</svg>
