<?xml version="1.0" encoding="UTF-8" standalone="no"?>
<svg
   xmlns:dc="http://purl.org/dc/elements/1.1/"
   xmlns:cc="http://creativecommons.org/ns#"
   xmlns:rdf="http://www.w3.org/1999/02/22-rdf-syntax-ns#"
   xmlns:svg="http://www.w3.org/2000/svg"
   xmlns="http://www.w3.org/2000/svg"
   xmlns:sodipodi="http://sodipodi.sourceforge.net/DTD/sodipodi-0.dtd"
   xmlns:inkscape="http://www.inkscape.org/namespaces/inkscape"
   width="45pt"
   height="52pt"
   viewBox="0 0 45 52"
   version="1.1"
   id="svg2"
   inkscape:version="0.48.2 r9819"
   sodipodi:docname="yellowCard.png">
  <metadata
     id="metadata12">
    <rdf:RDF>
      <cc:Work
         rdf:about="">
        <dc:format>image/svg+xml</dc:format>
        <dc:type
           rdf:resource="http://purl.org/dc/dcmitype/StillImage" />
        <dc:title></dc:title>
      </cc:Work>
    </rdf:RDF>
  </metadata>
  <defs
     id="defs10" />
  <sodipodi:namedview
     pagecolor="#ffffff"
     bordercolor="#666666"
     borderopacity="1"
     objecttolerance="10"
     gridtolerance="10"
     guidetolerance="10"
     inkscape:pageopacity="0"
     inkscape:pageshadow="2"
     inkscape:window-width="1366"
     inkscape:window-height="691"
     id="namedview8"
     showgrid="false"
     showguides="true"
     inkscape:guide-bbox="true"
     inkscape:zoom="5.1346831"
     inkscape:cx="108.70992"
     inkscape:cy="34.357395"
     inkscape:window-x="-9"
     inkscape:window-y="-9"
     inkscape:window-maximized="1"
     inkscape:current-layer="#373737ff">
    <sodipodi:guide
       orientation="0,1"
       position="-32.134408,73.422253"
       id="guide3025" />
  </sodipodi:namedview>
  <g
     id="#ffffffff" />
  <g
     id="#373737ff">
    <path
       d="m 11.072229,5.557149 c 7.25,-1.58 14.48,-3.23 21.74,-4.74000002 2.17,9.22000002 4.19,18.47000002 6.16,27.73000002 -3.45,0.83 -6.93,1.55 -10.41,2.29 0.68,1.7 1.46,3.38 2.76,4.71 0.21,-0.87 0.62,-2.59 0.82,-3.45 1.02,-0.2 2.05,-0.39 3.07,-0.58 0.55,3.22 -1.09,6.1 -4.35,6.83 0.14,4.47 -2.49,8.11 -5.46,11.16 l -12.22,0 c -0.13,-2.31 0.22,-4.81 -0.92,-6.93 -1.77,-3.41 -5.0400003,-6.16 -5.5900003,-10.12 0.23,-4.72 3.25,-8.66 5.4100003,-12.69 0.35,1.5 0.69,3.01 1.02,4.52 -1.42,3.21 -4.7100003,7.05 -2.17,10.53 2.51,3.53 5.23,7.07 5.7,11.55 2.44,-0.04 4.88,-0.02 7.32,-0.03 1.5,-2.04 3.72,-4.04 3.56,-6.81 -0.19,-2.41 -0.98,-4.73 -1.4,-7.1 -0.47,-3.14 0.05,-6.34 -0.37,-9.48 -0.28,-1.92 -3.42,-2.03 -3.84,-0.12 -1.1,3.25 -1.54,6.68 -2.24,10.03 -0.83,0.14 -1.65,0.29 -2.47,0.43 -2.08,-9.23 -4.2,-18.46 -6.12,-27.73 z"
       id="path6"
       inkscape:connector-curvature="0"
       style="fill:#373737" />
    <path
       d="m 13.292999,6.7754782 c 5.998621,-1.31465 11.980694,-2.687544 17.987587,-3.94395 1.795449,7.6715648 3.608349,16.1168788 5.238318,23.8217278 -11.149711,3.239764 -1.098112,0.208682 -9.054672,2.479592 -0.388875,-2.612658 -0.199019,-5.431043 -0.546522,-8.043703 -0.231673,-1.597551 -4.976911,-2.097996 -5.654926,-0.729096 -0.910136,2.704184 -0.981623,3.085106 -1.726054,5.858727 -0.220139,0.53907 -0.267488,0.662526 -1.180067,3.629649 C 16.635678,22.168529 14.881599,14.488644 13.292999,6.7754782 z"
       id="path6-7"
       inkscape:connector-curvature="0"
       style="fill:#ffcc00"
       sodipodi:nodetypes="ccccccccc" />
  </g>
</svg>
